PathFileType	4	(X/Y/Z)	C:\Users\Basilio\Documents\Thesis Gigler\squatting_fais\c3dfiles\073\SLS_front_pre2\markers_experimental.trc
DataRate	CameraRate	NumFrames	NumMarkers	Units	OrigDataRate	OrigDataStartFrame	OrigNumFrames
200.000000	200.000000	4	61	mm	200.000000	498	1328
Frame#	Time	FHD			LBHD			RBHD			C7			T10			CLAV			LSHO			LUUPA			LMUPA			LDUPA			LLEP			LMEP			LRAD			LUL			LRFIN			RSHO			RUPA1			RMUPA			RDUPA			RLEP			RMEP			RRAD			RUL			RUFIN			LASI			RASI			USACR			LSACR			RSACR			LTHI1			LTHI2			LTHI3			LTHI4			LLFC			LMFC			LTIB1			LTIB2			LTIB3			LTIB4			LLMAL			LMMAL			LHEE			LMT1			LMT2			LMT5			RTHI			RTHI2			RTHI3			RTHI4			RLFC			RMFC			RTIB1			RTIB2			RTIB3			RTIB4			RLMAL			RMMAL			RHEE			RMT1			RMT2			RMT5			
		X1	Y1	Z1	X2	Y2	Z2	X3	Y3	Z3	X4	Y4	Z4	X5	Y5	Z5	X6	Y6	Z6	X7	Y7	Z7	X8	Y8	Z8	X9	Y9	Z9	X10	Y10	Z10	X11	Y11	Z11	X12	Y12	Z12	X13	Y13	Z13	X14	Y14	Z14	X15	Y15	Z15	X16	Y16	Z16	X17	Y17	Z17	X18	Y18	Z18	X19	Y19	Z19	X20	Y20	Z20	X21	Y21	Z21	X22	Y22	Z22	X23	Y23	Z23	X24	Y24	Z24	X25	Y25	Z25	X26	Y26	Z26	X27	Y27	Z27	X28	Y28	Z28	X29	Y29	Z29	X30	Y30	Z30	X31	Y31	Z31	X32	Y32	Z32	X33	Y33	Z33	X34	Y34	Z34	X35	Y35	Z35	X36	Y36	Z36	X37	Y37	Z37	X38	Y38	Z38	X39	Y39	Z39	X40	Y40	Z40	X41	Y41	Z41	X42	Y42	Z42	X43	Y43	Z43	X44	Y44	Z44	X45	Y45	Z45	X46	Y46	Z46	X47	Y47	Z47	X48	Y48	Z48	X49	Y49	Z49	X50	Y50	Z50	X51	Y51	Z51	X52	Y52	Z52	X53	Y53	Z53	X54	Y54	Z54	X55	Y55	Z55	X56	Y56	Z56	X57	Y57	Z57	X58	Y58	Z58	X59	Y59	Z59	X60	Y60	Z60	X61	Y61	Z61	

499	2.49	-180.3468322753907	1449.266357421875	-792.747253417969	-315.5510559082032	1425.780639648438	-819.7722167968752	-341.8795776367188	1408.805541992188	-686.6599121093751	-375.3839721679688	1324.133056640625	-749.6928710937501	-542.1929931640626	1036.838500976563	-750.0544433593751	-276.6065063476563	1209.918701171875	-748.9147949218751	-289.6828308105469	1262.698608398438	-893.3369140625002	-219.4848937988282	1173.736206054688	-984.8496093750002	-176.7675933837891	1187.864501953125	-962.6151123046877	-162.0145721435547	1137.015869140625	-993.205993652344	-61.46313476562501	1098.268310546875	-993.8013916015627	-72.86865997314455	1044.57666015625	-948.3750610351565	193.6021881103516	1100.510498046875	-868.6292724609377	200.5643157958985	1095.987670898438	-942.5652465820315	275.0021972656251	1105.977661132813	-858.9427490234377	-278.7062377929688	1256.742431640625	-606.6605224609376	-200.0545806884766	1148.798706054688	-508.8621520996095	-159.0022125244141	1166.250610351563	-526.9338989257814	-140.4881591796875	1113.962646484375	-504.6088867187501	-50.11328125000001	1087.621704101563	-507.6075744628907	-61.54100036621095	1033.15625	-569.3442993164064	195.3403625488282	1102.720703125	-646.9043579101564	210.5550537109376	1109.836059570313	-571.1356811523439	283.0365600585938	1121.871704101563	-656.8726196289064	-420.370819091797	865.0350341796877	-890.025573730469	-405.4719848632814	851.075134277344	-642.4839477539064	-588.6011962890626	907.469177246094	-752.0103759765626	-599.0714111328126	877.9456787109377	-780.9080200195315	-598.3314819335939	873.3445434570315	-725.2626953125001	-238.2116088867188	673.6197509765626	-944.7310791015627	-156.4715270996094	664.5744018554689	-922.4719238281252	-141.1867065429688	700.6725463867189	-891.2905273437502	-127.5566558837891	614.4617919921876	-912.8504638671877	-78.48378753662111	582.4799804687501	-911.2285156250002	-82.44747924804689	576.5860595703126	-771.2077636718752	103.8448486328125	497.8414916992189	-854.577087402344	100.0336380004883	428.4360351562501	-907.8345336914065	130.4656982421875	454.4960021972657	-886.5780029296877	190.748519897461	405.9482421875001	-851.7562255859377	242.9791107177735	282.5675048828126	-876.628356933594	230.8577117919922	304.9533081054688	-792.153503417969	233.0898590087891	215.7038726806641	-833.4082031250002	375.9640808105469	386.246551513672	-792.5966796875002	375.9832153320313	388.196502685547	-831.2685546875002	372.6322937011719	346.9108581542969	-884.9401855468752	-347.5678405761719	635.3205566406251	-586.5711059570314	-282.9645996093751	619.5577392578126	-589.2260742187501	-259.7567138671876	642.9231567382814	-593.2992553710939	-249.7996368408204	546.2662963867189	-613.6240234375001	-158.4539642333985	447.2671203613282	-644.8117675781251	-155.1006164550782	457.2142333984376	-773.4820556640627	-181.2568817138672	304.6225280761719	-753.7509155273439	-236.8224487304688	234.5440826416016	-693.1269531250001	-218.3157196044922	227.4474029541016	-737.1160278320314	-259.0435180664063	201.7994232177735	-770.6420898437502	-357.0897216796876	96.24067687988284	-723.6306762695314	-343.9240417480469	129.3784637451172	-809.6693115234377	-432.7478027343751	83.98641967773439	-782.221130371094	-209.1990356445313	54.7423439025879	-785.6846313476565	-210.6787567138672	51.99004364013673	-744.4222412109376	-256.4790649414063	33.94816589355469	-699.4545898437501	
500	2.495	-180.4677276611328	1447.801879882813	-792.843688964844	-315.2720031738282	1424.457275390625	-819.9010009765627	-341.4757995605469	1407.636596679688	-686.7307128906251	-374.9617614746094	1322.87353515625	-749.7930908203126	-542.2468872070314	1035.90087890625	-750.0314941406251	-276.4321289062501	1208.566040039063	-748.9897460937501	-289.3051757812501	1261.320068359375	-893.3882446289065	-219.3927612304688	1172.216430664063	-984.9334716796877	-176.4241943359375	1186.514404296875	-962.5884399414065	-162.1517486572266	1135.545776367188	-993.4253540039065	-61.05875396728517	1096.755981445313	-993.9844360351565	-72.63651275634767	1043.204223632813	-948.4771728515627	193.761703491211	1099.042358398438	-868.8298339843752	200.6959381103516	1094.471435546875	-942.5759277343752	275.4788818359376	1104.549072265625	-859.1055297851565	-278.3677062988282	1255.4990234375	-606.8187255859376	-199.7877197265626	1147.579711914063	-508.9976196289064	-158.7301788330078	1165.036743164063	-526.9657592773439	-140.3045959472657	1112.807495117188	-504.7185668945314	-49.86460113525392	1086.271728515625	-507.5933227539064	-61.33256912231447	1031.959716796875	-569.3358764648439	195.6124572753907	1101.184204101563	-646.8673706054689	210.7855224609376	1108.467163085938	-571.1930541992189	283.2338867187501	1120.451171875	-656.9890136718751	-420.5703735351564	863.9064941406252	-890.068542480469	-405.6908264160157	850.138122558594	-642.6213989257814	-588.7417602539064	906.4470214843752	-751.8983764648439	-599.3345336914064	876.9837036132815	-780.8201904296877	-598.5262451171876	872.4194946289065	-725.1737670898439	-238.2379913330079	672.8327026367189	-944.6153564453127	-156.4223327636719	663.9507446289064	-922.4401855468752	-141.20361328125	700.1264648437501	-891.2315063476565	-127.5433883666992	613.8718261718751	-912.812683105469	-78.21863555908205	582.0044555664064	-911.2158203125002	-82.30903625488283	576.1840820312501	-771.085388183594	104.098129272461	497.6828918457032	-854.439392089844	100.3844833374024	428.2183227539064	-907.656677246094	130.8543548583985	454.4051818847657	-886.4001464843752	191.0740966796875	405.8189086914064	-851.7586669921877	243.4441223144532	282.5725097656251	-876.4141235351565	231.3049926757813	304.9405517578126	-792.0083618164065	233.5852355957032	215.738754272461	-833.1440429687502	376.3325195312501	386.7036437988282	-792.2275390625002	376.2625427246094	388.3663940429689	-830.9004516601565	373.0405578613282	347.1156616210938	-884.850524902344	-347.4782104492188	634.5950927734376	-586.5631103515626	-282.8008422851563	619.0021972656251	-589.2954101562501	-259.7015686035157	642.4103393554689	-593.3866577148439	-249.4891357421876	545.7508544921876	-613.6607055664064	-157.9917144775391	446.9771423339845	-644.8660888671876	-154.6988525390625	456.9483947753907	-773.584167480469	-181.0132293701172	304.4418029785157	-753.8681640625001	-236.6392059326172	234.4263916015626	-693.0926513671876	-218.2018127441407	227.2855377197266	-737.1995849609376	-258.9603576660157	201.6831054687501	-770.638854980469	-357.0888366699219	96.20216369628909	-723.6201171875001	-343.8736572265626	129.4261322021485	-809.7008056640627	-432.7464599609376	83.98719787597658	-782.2207641601565	-209.1905364990235	54.74021530151369	-785.6812744140627	-210.6714477539063	51.96303939819337	-744.3877563476564	-256.4776916503907	33.94804763793946	-699.4545288085939	
501	2.5	-180.3143768310547	1446.564697265625	-793.0454101562502	-314.9835510253907	1423.236694335938	-820.0183715820315	-341.1782226562501	1406.327270507813	-686.9400024414064	-374.5841369628907	1321.724975585938	-749.8728027343751	-542.3361206054689	1034.967895507813	-749.9721069335939	-276.1596374511719	1207.251220703125	-749.0509033203126	-288.9971923828126	1260.1328125	-893.4586181640627	-219.0430603027344	1171.009643554688	-984.938903808594	-176.0625915527344	1185.15673828125	-962.6838378906252	-161.6130676269532	1134.186767578125	-993.3726196289065	-60.98067092895509	1095.423217773438	-993.876403808594	-72.51697540283205	1041.811889648438	-948.4539184570315	194.0354156494141	1097.6376953125	-868.8208007812502	200.9456481933594	1093.046752929688	-942.652526855469	275.7414550781251	1103.117797851563	-859.2625122070315	-278.0762023925782	1254.245727539063	-606.9235839843751	-199.4788208007813	1146.3349609375	-509.0046691894532	-158.5079040527344	1163.724731445313	-527.0497436523439	-140.037109375	1111.494873046875	-504.7639465332032	-49.58932495117189	1084.98486328125	-507.6399841308595	-61.18600845336915	1030.639282226563	-569.4214477539064	196.0012817382813	1099.961303710938	-647.1082153320314	211.0642395019532	1107.051391601563	-571.2169189453126	283.4966735839844	1119.05078125	-657.0308227539064	-420.7599487304689	863.0537109375002	-889.8536376953127	-405.914520263672	849.1933593750002	-642.6802978515626	-588.9554443359376	905.3605957031252	-751.8908081054689	-599.4883422851564	876.086120605469	-780.794372558594	-598.6940307617189	871.5545654296877	-725.2094726562501	-238.2375183105469	672.1173706054689	-944.6571044921877	-156.440902709961	663.4689331054689	-922.420837402344	-141.2332611083985	699.6077270507814	-891.2401123046877	-127.4303436279297	613.3689575195314	-912.7692871093752	-78.11785125732423	581.5688476562501	-911.0462036132815	-82.20115661621095	575.8113403320314	-771.0537719726565	104.4309234619141	497.5347595214845	-854.393737792969	100.8497772216797	428.0296325683595	-907.5257568359377	131.1966857910157	454.141571044922	-886.3438110351565	191.4562530517578	405.7245483398439	-851.6607055664065	244.0236053466797	282.5157775878907	-876.1431884765627	231.7756958007813	304.9297790527344	-791.684265136719	234.1447143554688	215.7299041748047	-832.8538208007815	376.7259216308594	387.2344665527345	-791.884460449219	376.6367187500001	388.6209716796876	-830.785339355469	373.3951721191407	347.2225036621094	-884.5977783203127	-347.3911743164063	633.9280395507814	-586.6517333984376	-282.6573791503907	618.4400024414064	-589.2645263671876	-259.5948791503907	641.9312744140626	-593.5003662109376	-249.2480621337891	545.2240600585939	-613.6885986328126	-157.592514038086	446.6771850585939	-644.9758300781251	-154.3856048583985	456.7298278808595	-773.6431884765627	-180.8127593994141	304.2330017089844	-753.9058227539064	-236.4794464111329	234.2386779785157	-693.1503295898439	-218.1031799316407	227.1099243164063	-737.2661132812501	-258.8637084960938	201.5793609619141	-770.675231933594	-357.0894165039063	96.18247222900393	-723.6143798828126	-343.8361816406251	129.3858795166016	-809.705017089844	-432.7714233398439	83.97740936279298	-782.2067871093752	-209.1895904541016	54.75136184692384	-785.6729125976565	-210.687240600586	51.94001770019533	-744.4097290039064	-256.4789123535157	33.94787979125977	-699.4521484375001	
502	2.505	-179.2539367675782	1445.4052734375	-793.0605468750002	-314.6274108886719	1421.87158203125	-820.1423950195315	-340.8292541503907	1405.147094726563	-687.0333862304689	-374.2219543457032	1320.648681640625	-750.0372924804689	-542.4653930664064	1034.149780273438	-750.0740966796876	-275.8815917968751	1206.060302734375	-749.1935424804689	-288.6642456054688	1258.806030273438	-893.5825805664065	-218.8482818603516	1169.551635742188	-985.0041503906252	-175.8925323486328	1183.754760742188	-962.7292480468752	-161.8295440673828	1132.75439453125	-993.6308593750002	-60.77203369140626	1093.96875	-994.0989990234377	-72.29322814941408	1040.433349609375	-948.4473876953127	194.1831970214844	1096.14453125	-869.0618896484377	201.1047363281251	1091.51708984375	-942.830261230469	275.8786315917969	1101.619873046875	-859.3621826171877	-277.6940612792969	1253.1064453125	-607.1114501953126	-199.2894134521485	1145.168090820313	-509.176483154297	-158.2101135253907	1162.512329101563	-527.2171020507814	-139.7698516845703	1110.267456054688	-504.7911682128907	-49.39242935180665	1083.73291015625	-507.8011169433595	-60.92969131469728	1029.35693359375	-569.4296875000001	196.365219116211	1098.599731445313	-647.2019042968751	211.2937927246094	1105.712280273438	-571.3099975585939	283.7664489746094	1117.60595703125	-657.0989379882814	-421.0439758300782	862.1000976562502	-889.7198486328127	-406.1288146972657	848.2679443359377	-642.5730590820314	-589.1865234375001	904.6023559570315	-751.9498901367189	-599.6495361328126	875.0233154296877	-780.7484130859377	-598.9314575195314	870.566345214844	-725.1929321289064	-238.2481384277344	671.4409179687501	-944.7534790039065	-156.4455871582032	662.8820190429689	-922.365173339844	-141.2439880371094	699.0878295898439	-891.3942871093752	-127.3045196533203	612.7796020507814	-912.7485351562502	-78.05565643310548	581.1899414062501	-911.0320434570315	-82.10057067871095	575.4216918945314	-770.977722167969	104.6580123901367	497.3980102539064	-854.2653808593752	101.234489440918	427.801239013672	-907.3493652343752	131.4112396240235	453.9589843750001	-886.214294433594	191.8152008056641	405.6865844726564	-851.4674072265627	244.5905761718751	282.4737548828126	-875.9122314453127	232.2988433837891	304.9537353515626	-791.4199829101565	234.7745819091797	215.6528930664063	-832.7595214843752	376.9591979980469	387.4151611328126	-791.7834472656252	376.9816894531251	388.8058166503907	-830.7443847656252	373.7338867187501	347.3566894531251	-884.3967285156252	-347.2782897949219	633.2399902343751	-586.6556396484376	-282.5192565917969	617.8123168945314	-589.4154663085939	-259.5483093261719	641.4234008789064	-593.5401000976564	-248.9746246337891	544.7125244140626	-613.7156372070314	-157.1585235595703	446.3690490722657	-645.0323486328126	-154.123291015625	456.4764709472657	-773.7322387695315	-180.6297760009766	304.0363159179688	-754.0445556640626	-236.387924194336	234.0926971435547	-693.1315307617189	-218.0012817382813	226.9587707519532	-737.3046264648439	-258.7519836425782	201.4499816894532	-770.7107543945315	-357.0577087402344	96.1413497924805	-723.6000366210939	-343.8962097167969	129.3824310302735	-809.6156005859377	-432.7768554687501	83.96266174316408	-782.2010498046877	-209.1864624023438	54.78419113159181	-785.655212402344	-210.685287475586	51.93621826171876	-744.4106445312501	-256.4807128906251	33.91330337524415	-699.4400634765626	
